#!OML:ASF I:\Actors\actors\Patient Classification 2\Patient 1\Session 1\actor1.ASF
:FULLY-SPECIFIED
:DEGREES
719
root -0.755733 18.6264 6.10532 -0.280736 -1.73543 -5.18546
lowerback 1.21195 0.0525593 1.67248
upperback -2.21171 0.147759 1.25994
thorax -2.94943 0.0511135 0.351291
lowerneck -7.6531 -0.497515 -0.918242
upperneck 22.204 -1.11096 2.5293
head 8.13919 -0.365517 0.893333
rclavicle 3.97569e-015 4.37326e-015
rhumerus -49.5113 4.48551 -85.3297
rradius 79.1492
rwrist -22.0683
rhand -2.22566 -56.6209
rfingers 7.12502
rthumb 23.4569 -85.211
lclavicle 3.97569e-015 4.37326e-015
lhumerus -46.006 -8.76402 91.7146
lradius 84.0881
lwrist 15.563
lhand -11.1536 -23.2925
lfingers 7.12502
lthumb 14.8725 6.15367
rfemur 0 0 0
rtibia 0
rfoot 0 0
rtoes 0
lfemur -2.45595 -6.92925 -9.21733
ltibia 23.7293
lfoot -25.1349 14.5538
ltoes -55.837
720
root -0.760655 18.6255 6.11154 -0.231968 -1.77051 -5.14791
lowerback 1.11223 0.0380215 1.64737
upperback -2.27264 0.126925 1.28552
thorax -2.95627 0.0413775 0.392556
lowerneck -7.62908 -0.493756 -1.03516
upperneck 22.0568 -1.10384 2.62104
head 8.08618 -0.364071 0.94353
rclavicle 7.92654e-015 -8.34896e-015
rhumerus -49.7226 3.18971 -85.1719
rradius 76.6215
rwrist -20.6776
rhand -2.25681 -56.0708
rfingers 7.12502
rthumb 23.4271 -84.6647
lclavicle 7.92654e-015 -8.34896e-015
lhumerus -46.6141 -8.24704 91.8252
lradius 82.6226
lwrist 15.6978
lhand -11.2882 -22.8024
lfingers 7.12502
lthumb 14.7429 6.65329
rfemur 0 0 0
rtibia 0
rfoot 0 0
rtoes 0
lfemur -2.44585 -7.21805 -9.29515
ltibia 23.7144
lfoot -25.3652 14.75
ltoes -55.6787
721
root -0.765499 18.6242 6.11923 -0.197006 -1.81501 -5.0899
lowerback 1.00902 0.0521291 1.65208
upperback -2.32533 0.143428 1.25598
thorax -2.9522 0.0489882 0.359106
lowerneck -7.60013 -0.514284 -1.00838
upperneck 21.9144 -1.13536 2.62839
head 8.03379 -0.377243 0.937805
rclavicle 6.70898e-015 1.59028e-015
rhumerus -49.9153 1.69984 -84.9502
rradius 74.0462
rwrist -18.9995
rhand -2.17555 -55.4689
rfingers 7.12502
rthumb 23.505 -84.0529
lclavicle 6.70898e-015 1.59028e-015
lhumerus -47.1787 -7.72805 91.8713
lradius 81.1278
lwrist 15.7405
lhand -11.3808 -22.484
lfingers 7.12502
lthumb 14.6537 6.9782
rfemur 0 0 0
rtibia 0
rfoot 0 0
rtoes 0
lfemur -2.40977 -7.36389 -9.38122
ltibia 23.6679
lfoot -25.4787 14.9028
ltoes -55.6507
722
root -0.770716 18.6232 6.12625 -0.18185 -1.87704 -5.05225
lowerback 0.950807 0.0749603 1.66807
upperback -2.37972 0.173283 1.23437
thorax -2.9752 0.0629389 0.327033
lowerneck -7.51986 -0.519801 -0.892983
upperneck 21.7258 -1.14007 2.54795
head 7.95532 -0.379459 0.890316
rclavicle -4.02539e-015 1.59028e-015
rhumerus -50.1357 0.1255 -84.6546
rradius 71.5666
rwrist -17.3456
rhand -2.89112 -54.9117
rfingers 7.12502
rthumb 22.8185 -83.5819
lclavicle -4.02539e-015 1.59028e-015
lhumerus -47.7167 -7.15873 91.8965
lradius 79.579
lwrist 15.6325
lhand -11.5499 -22.3901
lfingers 7.12502
lthumb 14.4907 7.08386
rfemur 0 0 0
rtibia 0
rfoot 0 0
rtoes 0
lfemur -2.35245 -7.41698 -9.42881
ltibia 23.6168
lfoot -25.5295 15.0034
ltoes -55.6596
723
root -0.775619 18.6234 6.13124 -0.155913 -1.96559 -5.04157
lowerback 0.926618 0.109754 1.68649
upperback -2.43937 0.221018 1.24523
thorax -3.02283 0.0859995 0.326324
lowerneck -7.55995 -0.543344 -0.859178
upperneck 21.6275 -1.16428 2.49378
head 7.9299 -0.393628 0.863953
rclavicle 1.95057e-014 2.78299e-015
rhumerus -50.3538 -1.33658 -84.3583
rradius 69.2907
rwrist -16.2709
rhand -4.29396 -54.8792
rfingers 7.12502
rthumb 21.4717 -83.7092
lclavicle 1.95057e-014 2.78299e-015
lhumerus -48.1787 -6.53201 91.9663
lradius 78.018
lwrist 15.4861
lhand -11.6087 -22.4652
lfingers 7.12502
lthumb 14.4341 7.01281
rfemur 0 0 0
rtibia 0
rfoot 0 0
rtoes 0
lfemur -2.30726 -7.46611 -9.44476
ltibia 23.5789
lfoot -25.5971 15.0703
ltoes -55.5855
724
root -0.77994 18.6231 6.13657 -0.125566 -2.06821 -5.08039
lowerback 0.882875 0.152484 1.75963
upperback -2.49323 0.280894 1.28776
thorax -3.05337 0.114305 0.327121
lowerneck -7.62376 -0.586408 -0.997473
upperneck 21.5385 -1.21344 2.55728
head 7.91381 -0.422163 0.903377
rclavicle -4.14963e-015 -1.21259e-014
rhumerus -50.6224 -2.53924 -84.0557
rradius 67.2633
rwrist -15.5511
rhand -4.02782 -55.7213
rfingers 7.12502
rthumb 21.7272 -84.5219
lclavicle -4.14963e-015 -1.21259e-014
lhumerus -48.559 -5.8194 92.0665
lradius 76.4816
lwrist 15.3676
lhand -11.7223 -22.5517
lfingers 7.12502
lthumb 14.3246 6.93417
rfemur 0 0 0
rtibia 0
rfoot 0 0
rtoes 0
lfemur -2.27051 -7.38262 -9.388
ltibia 23.547
lfoot -25.6153 15.0577
ltoes -55.5635
725
root -0.783914 18.6218 6.1435 -0.108329 -2.18222 -5.14751
lowerback 0.78699 0.194888 1.8625
upperback -2.51385 0.339329 1.35184
thorax -3.02015 0.141925 0.333644
lowerneck -7.53765 -0.59453 -1.13225
upperneck 21.2857 -1.20595 2.59658
head 7.81478 -0.427611 0.938742
rclavicle -1.02374e-014 2.66371e-014
rhumerus -50.9136 -3.46627 -83.6915
rradius 65.3324
rwrist -14.6795
rhand -6.18171 -54.4839
rfingers 7.12502
rthumb 19.6577 -83.51
lclavicle -1.02374e-014 2.66371e-014
lhumerus -48.8593 -5.01802 92.1466
lradius 74.9135
lwrist 15.3896
lhand -12.0051 -22.687
lfingers 7.12502
lthumb 14.0521 6.81796
rfemur 0 0 0
rtibia 0
rfoot 0 0
rtoes 0
lfemur -2.20841 -7.32497 -9.30667
ltibia 23.5138
lfoot -25.6711 15.0869
ltoes -55.5466
726
root -0.786175 18.6207 6.14961 -0.0924528 -2.27561 -5.1404
lowerback 0.71147 0.233248 1.9029
upperback -2.5396 0.390791 1.39085
thorax -3.00384 0.167136 0.349673
lowerneck -7.42439 -0.585896 -1.08595
upperneck 21.0484 -1.16792 2.46207
head 7.7139 -0.420235 0.889084
rclavicle 3.13086e-015 2.00773e-014
rhumerus -51.1408 -4.54422 -83.2559
rradius 63.297
rwrist -13.3683
rhand -6.90765 -52.2437
rfingers 7.12502
rthumb 18.9596 -81.3397
lclavicle 3.13086e-015 2.00773e-014
lhumerus -49.1856 -4.1291 92.1923
lradius 73.4311
lwrist 15.6126
lhand -12.2106 -22.6379
lfingers 7.12502
lthumb 13.854 6.88072
rfemur 0 0 0
rtibia 0
rfoot 0 0
rtoes 0
lfemur -2.15644 -7.35254 -9.32537
ltibia 23.4844
lfoot -25.7426 15.1721
ltoes -55.5311
727
root -0.786495 18.6207 6.15405 -0.0426226 -2.35137 -5.08439
lowerback 0.671486 0.25617 1.92515
upperback -2.60395 0.422741 1.41359
thorax -3.04756 0.182312 0.359707
lowerneck -7.42022 -0.586528 -1.03481
upperneck 20.9728 -1.13898 2.28888
head 7.68644 -0.418675 0.825731
rclavicle -5.54112e-015 8.94531e-015
rhumerus -51.2767 -5.82311 -82.7457
rradius 61.1214
rwrist -11.4026
rhand -8.66767 -48.1373
rfingers 7.12502
rthumb 17.2663 -77.3902
lclavicle -5.54112e-015 8.94531e-015
lhumerus -49.5878 -3.17957 92.2073
lradius 72.1313
lwrist 16.1668
lhand -12.362 -22.0164
lfingers 7.12502
lthumb 13.7081 7.51211
rfemur 0 0 0
rtibia 0
rfoot 0 0
rtoes 0
lfemur -2.15473 -7.37538 -9.40077
ltibia 23.4558
lfoot -25.7755 15.2601
ltoes -55.5734
728
root -0.787574 18.6216 6.15827 0.0492044 -2.44058 -5.10477
lowerback 0.602275 0.258703 2.03446
upperback -2.67983 0.429221 1.45317
thorax -3.08658 0.182796 0.339322
lowerneck -7.47144 -0.5668 -1.11566
upperneck 20.9726 -1.09612 2.2757
head 7.69513 -0.405415 0.8387
rclavicle -5.93869e-015 -7.15625e-015
rhumerus -51.3547 -6.80518 -82.3021
rradius 58.8313
rwrist -9.30802
rhand -11.1895 -43.4477
rfingers 7.12502
rthumb 14.838 -72.8964
lclavicle -5.93869e-015 -7.15625e-015
lhumerus -49.9009 -2.29155 92.2
lradius 70.7868
lwrist 17.1337
lhand -12.7074 -21.2823
lfingers 7.12502
lthumb 13.3752 8.26838
rfemur 0 0 0
rtibia 0
rfoot 0 0
rtoes 0
lfemur -2.18442 -7.45014 -9.39074
ltibia 23.4189
lfoot -25.8761 15.3746
ltoes -55.5327
